<?xml version="1.0" standalone="no"?>
<!DOCTYPE svg PUBLIC "-//W3C//DTD SVG 20010904//EN"
 "http://www.w3.org/TR/2001/REC-SVG-20010904/DTD/svg10.dtd">
<svg version="1.0" xmlns="http://www.w3.org/2000/svg"
 width="250.000000pt" height="250.000000pt" viewBox="0 0 250.000000 250.000000"
 preserveAspectRatio="xMidYMid meet">
<metadata>
Created by potrace 1.14, written by Peter Selinger 2001-2017
</metadata>
<g transform="translate(0.000000,250.000000) scale(0.100000,-0.100000)"
fill="#000000" stroke="none">
<path d="M1157 2284 c-1 -1 -24 -5 -51 -8 -328 -44 -623 -251 -774 -545 -208
-403 -136 -888 180 -1208 155 -158 369 -267 583 -298 94 -14 349 -6 378 12 4
2 19 7 34 9 140 26 355 148 476 271 203 208 306 462 301 748 -2 170 -28 279
-104 440 -143 304 -435 516 -785 571 -37 6 -233 12 -238 8z"/>
</g>
</svg>
